<svg xmlns="http://www.w3.org/2000/svg" viewBox="0 0 220 220" fill="none"><g stroke="#C8851E" stroke-opacity="0.9" fill="none"><circle cx="110" cy="110" r="82" stroke-width="1.3"/><circle cx="110" cy="110" r="64" stroke-width="0.8" stroke-opacity="0.6"/><line x1="192.0" y1="110.0" x2="176.0" y2="110.0" stroke-width="0.6"/><line x1="191.7" y1="117.1" x2="183.7" y2="116.4" stroke-width="1"/><line x1="190.8" y1="124.2" x2="182.9" y2="122.8" stroke-width="1"/><line x1="189.2" y1="131.2" x2="181.5" y2="129.2" stroke-width="1"/><line x1="187.1" y1="138.0" x2="179.5" y2="135.3" stroke-width="1"/><line x1="184.3" y1="144.7" x2="177.1" y2="141.3" stroke-width="1"/><line x1="181.0" y1="151.0" x2="174.1" y2="147.0" stroke-width="1"/><line x1="177.2" y1="157.0" x2="170.6" y2="152.4" stroke-width="1"/><line x1="172.8" y1="162.7" x2="166.7" y2="157.6" stroke-width="1"/><line x1="168.0" y1="168.0" x2="156.7" y2="156.7" stroke-width="0.6"/><line x1="162.7" y1="172.8" x2="157.6" y2="166.7" stroke-width="1"/><line x1="157.0" y1="177.2" x2="152.4" y2="170.6" stroke-width="1"/><line x1="151.0" y1="181.0" x2="147.0" y2="174.1" stroke-width="1"/><line x1="144.7" y1="184.3" x2="141.3" y2="177.1" stroke-width="1"/><line x1="138.0" y1="187.1" x2="135.3" y2="179.5" stroke-width="1"/><line x1="131.2" y1="189.2" x2="129.2" y2="181.5" stroke-width="1"/><line x1="124.2" y1="190.8" x2="122.8" y2="182.9" stroke-width="1"/><line x1="117.1" y1="191.7" x2="116.4" y2="183.7" stroke-width="1"/><line x1="110.0" y1="192.0" x2="110.0" y2="176.0" stroke-width="0.6"/><line x1="102.9" y1="191.7" x2="103.6" y2="183.7" stroke-width="1"/><line x1="95.8" y1="190.8" x2="97.2" y2="182.9" stroke-width="1"/><line x1="88.8" y1="189.2" x2="90.8" y2="181.5" stroke-width="1"/><line x1="82.0" y1="187.1" x2="84.7" y2="179.5" stroke-width="1"/><line x1="75.3" y1="184.3" x2="78.7" y2="177.1" stroke-width="1"/><line x1="69.0" y1="181.0" x2="73.0" y2="174.1" stroke-width="1"/><line x1="63.0" y1="177.2" x2="67.6" y2="170.6" stroke-width="1"/><line x1="57.3" y1="172.8" x2="62.4" y2="166.7" stroke-width="1"/><line x1="52.0" y1="168.0" x2="63.3" y2="156.7" stroke-width="0.6"/><line x1="47.2" y1="162.7" x2="53.3" y2="157.6" stroke-width="1"/><line x1="42.8" y1="157.0" x2="49.4" y2="152.4" stroke-width="1"/><line x1="39.0" y1="151.0" x2="45.9" y2="147.0" stroke-width="1"/><line x1="35.7" y1="144.7" x2="42.9" y2="141.3" stroke-width="1"/><line x1="32.9" y1="138.0" x2="40.5" y2="135.3" stroke-width="1"/><line x1="30.8" y1="131.2" x2="38.5" y2="129.2" stroke-width="1"/><line x1="29.2" y1="124.2" x2="37.1" y2="122.8" stroke-width="1"/><line x1="28.3" y1="117.1" x2="36.3" y2="116.4" stroke-width="1"/><line x1="28.0" y1="110.0" x2="44.0" y2="110.0" stroke-width="0.6"/><line x1="28.3" y1="102.9" x2="36.3" y2="103.6" stroke-width="1"/><line x1="29.2" y1="95.8" x2="37.1" y2="97.2" stroke-width="1"/><line x1="30.8" y1="88.8" x2="38.5" y2="90.8" stroke-width="1"/><line x1="32.9" y1="82.0" x2="40.5" y2="84.7" stroke-width="1"/><line x1="35.7" y1="75.3" x2="42.9" y2="78.7" stroke-width="1"/><line x1="39.0" y1="69.0" x2="45.9" y2="73.0" stroke-width="1"/><line x1="42.8" y1="63.0" x2="49.4" y2="67.6" stroke-width="1"/><line x1="47.2" y1="57.3" x2="53.3" y2="62.4" stroke-width="1"/><line x1="52.0" y1="52.0" x2="63.3" y2="63.3" stroke-width="0.6"/><line x1="57.3" y1="47.2" x2="62.4" y2="53.3" stroke-width="1"/><line x1="63.0" y1="42.8" x2="67.6" y2="49.4" stroke-width="1"/><line x1="69.0" y1="39.0" x2="73.0" y2="45.9" stroke-width="1"/><line x1="75.3" y1="35.7" x2="78.7" y2="42.9" stroke-width="1"/><line x1="82.0" y1="32.9" x2="84.7" y2="40.5" stroke-width="1"/><line x1="88.8" y1="30.8" x2="90.8" y2="38.5" stroke-width="1"/><line x1="95.8" y1="29.2" x2="97.2" y2="37.1" stroke-width="1"/><line x1="102.9" y1="28.3" x2="103.6" y2="36.3" stroke-width="1"/><line x1="110.0" y1="28.0" x2="110.0" y2="44.0" stroke-width="0.6"/><line x1="117.1" y1="28.3" x2="116.4" y2="36.3" stroke-width="1"/><line x1="124.2" y1="29.2" x2="122.8" y2="37.1" stroke-width="1"/><line x1="131.2" y1="30.8" x2="129.2" y2="38.5" stroke-width="1"/><line x1="138.0" y1="32.9" x2="135.3" y2="40.5" stroke-width="1"/><line x1="144.7" y1="35.7" x2="141.3" y2="42.9" stroke-width="1"/><line x1="151.0" y1="39.0" x2="147.0" y2="45.9" stroke-width="1"/><line x1="157.0" y1="42.8" x2="152.4" y2="49.4" stroke-width="1"/><line x1="162.7" y1="47.2" x2="157.6" y2="53.3" stroke-width="1"/><line x1="168.0" y1="52.0" x2="156.7" y2="63.3" stroke-width="0.6"/><line x1="172.8" y1="57.3" x2="166.7" y2="62.4" stroke-width="1"/><line x1="177.2" y1="63.0" x2="170.6" y2="67.6" stroke-width="1"/><line x1="181.0" y1="69.0" x2="174.1" y2="73.0" stroke-width="1"/><line x1="184.3" y1="75.3" x2="177.1" y2="78.7" stroke-width="1"/><line x1="187.1" y1="82.0" x2="179.5" y2="84.7" stroke-width="1"/><line x1="189.2" y1="88.8" x2="181.5" y2="90.8" stroke-width="1"/><line x1="190.8" y1="95.8" x2="182.9" y2="97.2" stroke-width="1"/><line x1="191.7" y1="102.9" x2="183.7" y2="103.6" stroke-width="1"/><path d="M110,40 L124,96 L110,110 L96,96 Z" fill="#D85A1A" stroke="none"/><path d="M110,180 L124,124 L110,110 L96,124 Z" fill="#C8851E" fill-opacity="0.5" stroke="none"/><path d="M40,110 L96,96 L110,110 L96,124 Z" fill="#C8851E" fill-opacity="0.3" stroke="none"/><path d="M180,110 L124,96 L110,110 L124,124 Z" fill="#C8851E" fill-opacity="0.3" stroke="none"/></g><text x="110" y="18" fill="#C8851E" font-family="IBM Plex Mono, monospace" font-size="16" text-anchor="middle">N</text><text x="110" y="210" fill="#C8851E" font-family="IBM Plex Mono, monospace" font-size="16" text-anchor="middle">S</text><text x="206" y="116" fill="#C8851E" font-family="IBM Plex Mono, monospace" font-size="16" text-anchor="middle">E</text><text x="14" y="116" fill="#C8851E" font-family="IBM Plex Mono, monospace" font-size="16" text-anchor="middle">W</text></svg>