<svg xmlns="http://www.w3.org/2000/svg" viewBox="0 0 1040 660" fill="none"><g stroke="#7A3506" stroke-width="2" stroke-linejoin="round" stroke-linecap="round" stroke-opacity="0.95"><line x1="60" y1="540" x2="980" y2="540" stroke-width="1.5"/><line x1="90" y1="540" x2="78" y2="552" stroke-width="1" stroke-opacity="0.6"/><line x1="124" y1="540" x2="112" y2="552" stroke-width="1" stroke-opacity="0.6"/><line x1="158" y1="540" x2="146" y2="552" stroke-width="1" stroke-opacity="0.6"/><line x1="192" y1="540" x2="180" y2="552" stroke-width="1" stroke-opacity="0.6"/><line x1="226" y1="540" x2="214" y2="552" stroke-width="1" stroke-opacity="0.6"/><line x1="260" y1="540" x2="248" y2="552" stroke-width="1" stroke-opacity="0.6"/><line x1="294" y1="540" x2="282" y2="552" stroke-width="1" stroke-opacity="0.6"/><line x1="328" y1="540" x2="316" y2="552" stroke-width="1" stroke-opacity="0.6"/><line x1="362" y1="540" x2="350" y2="552" stroke-width="1" stroke-opacity="0.6"/><line x1="396" y1="540" x2="384" y2="552" stroke-width="1" stroke-opacity="0.6"/><line x1="430" y1="540" x2="418" y2="552" stroke-width="1" stroke-opacity="0.6"/><line x1="464" y1="540" x2="452" y2="552" stroke-width="1" stroke-opacity="0.6"/><line x1="498" y1="540" x2="486" y2="552" stroke-width="1" stroke-opacity="0.6"/><line x1="532" y1="540" x2="520" y2="552" stroke-width="1" stroke-opacity="0.6"/><line x1="566" y1="540" x2="554" y2="552" stroke-width="1" stroke-opacity="0.6"/><line x1="600" y1="540" x2="588" y2="552" stroke-width="1" stroke-opacity="0.6"/><line x1="634" y1="540" x2="622" y2="552" stroke-width="1" stroke-opacity="0.6"/><line x1="668" y1="540" x2="656" y2="552" stroke-width="1" stroke-opacity="0.6"/><line x1="702" y1="540" x2="690" y2="552" stroke-width="1" stroke-opacity="0.6"/><line x1="736" y1="540" x2="724" y2="552" stroke-width="1" stroke-opacity="0.6"/><line x1="770" y1="540" x2="758" y2="552" stroke-width="1" stroke-opacity="0.6"/><line x1="804" y1="540" x2="792" y2="552" stroke-width="1" stroke-opacity="0.6"/><line x1="838" y1="540" x2="826" y2="552" stroke-width="1" stroke-opacity="0.6"/><line x1="872" y1="540" x2="860" y2="552" stroke-width="1" stroke-opacity="0.6"/><line x1="906" y1="540" x2="894" y2="552" stroke-width="1" stroke-opacity="0.6"/><line x1="940" y1="540" x2="928" y2="552" stroke-width="1" stroke-opacity="0.6"/><line x1="974" y1="540" x2="962" y2="552" stroke-width="1" stroke-opacity="0.6"/><rect x="143" y="456" width="372" height="84" rx="42"/><circle cx="185" cy="498" r="26"/><circle cx="475" cy="498" r="30"/><circle cx="235" cy="522" r="11" stroke-width="1.4"/><circle cx="285" cy="522" r="11" stroke-width="1.4"/><circle cx="335" cy="522" r="11" stroke-width="1.4"/><circle cx="385" cy="522" r="11" stroke-width="1.4"/><circle cx="435" cy="522" r="11" stroke-width="1.4"/><circle cx="185" cy="498" r="6" fill="#7A3506"/><circle cx="475" cy="498" r="7" fill="#7A3506"/><rect x="180" y="424" width="306" height="34" rx="6"/><path d="M214,424 L214,332 L252,300 L330,300 L330,424"/><path d="M226,330 L252,310 L322,310 L322,360 L226,360 Z" stroke-width="1.4" stroke-opacity="0.7"/><line x1="274" y1="310" x2="274" y2="360" stroke-width="1.2" stroke-opacity="0.6"/><path d="M330,424 L330,366 Q420,338 472,372 Q486,386 486,424"/><path d="M486,424 Q500,424 500,398 Q500,372 486,372" stroke-opacity="0.8"/><g stroke="#C0470F" stroke-width="11" stroke-opacity="0.9"><line x1="448" y1="402" x2="636" y2="300"/><line x1="636" y1="300" x2="748" y2="446"/></g><circle cx="448" cy="402" r="8"/><circle cx="636" cy="300" r="8"/><circle cx="748" cy="446" r="7"/><path d="M748,446 Q792,470 800,512 L742,524 Q726,486 730,452 Z"/><path d="M752,520 l-4,16" stroke-width="1.6"/><path d="M766,520 l-4,16" stroke-width="1.6"/><path d="M780,520 l-4,16" stroke-width="1.6"/><path d="M792,520 l-4,16" stroke-width="1.6"/><line x1="432" y1="438" x2="556" y2="356" stroke-width="3" stroke-opacity="0.7"/><line x1="612" y1="318" x2="704" y2="392" stroke-width="3" stroke-opacity="0.7"/></g><path d="M812,470 A360,360 0 0 0 470,150" stroke="#C0470F" stroke-width="1.3" stroke-dasharray="9 7" stroke-opacity="0.55"/><g><line x1="143" y1="582" x2="143" y2="602" stroke="#7A3506" stroke-width="1"/><line x1="800" y1="582" x2="800" y2="602" stroke="#7A3506" stroke-width="1"/><line x1="143" y1="592" x2="800" y2="592" stroke="#7A3506" stroke-width="1.2"/><path d="M150.4,588.9 L143.0,592.0 L150.4,595.1" stroke="#7A3506" stroke-width="1.4"/><path d="M792.6,595.1 L800.0,592.0 L792.6,588.9" stroke="#7A3506" stroke-width="1.4"/><rect x="445.5" y="583" width="52" height="18" fill="#0E0A05" fill-opacity="0"/><text x="471.5" y="587" fill="#7A3506" font-family="IBM Plex Mono, monospace" font-size="15" text-anchor="middle">5.21 m</text><line x1="98" y1="300" x2="118" y2="300" stroke="#7A3506" stroke-width="1"/><line x1="98" y1="540" x2="118" y2="540" stroke="#7A3506" stroke-width="1"/><line x1="108" y1="300" x2="108" y2="540" stroke="#7A3506" stroke-width="1.2"/><path d="M111.1,307.4 L108.0,300.0 L104.9,307.4" stroke="#7A3506" stroke-width="1.4"/><path d="M104.9,532.6 L108.0,540.0 L111.1,532.6" stroke="#7A3506" stroke-width="1.4"/><text x="102" y="425.0" fill="#7A3506" font-family="IBM Plex Mono, monospace" font-size="15" text-anchor="end" transform="rotate(-90 102 425.0)">2.51 m</text></g><text x="232" y="288" fill="#C0470F" font-family="IBM Plex Mono, monospace" font-size="17" letter-spacing="1">KUBOTA KX040-5</text><text x="232" y="270" fill="#7A3506" font-family="IBM Plex Mono, monospace" font-size="12" letter-spacing="3" opacity="0.7">SIDE ELEVATION — NTS</text></svg>