<svg xmlns="http://www.w3.org/2000/svg" viewBox="0 0 900 900" fill="none"><g stroke="#7A3506" stroke-opacity="0.95" fill="none"><path d="M120,170 L770,130 L812,628 L430,800 L132,694 Z" stroke-width="2.4"/><circle cx="120" cy="170" r="6" fill="#7A3506"/><circle cx="770" cy="130" r="6" fill="#7A3506"/><circle cx="812" cy="628" r="6" fill="#7A3506"/><circle cx="430" cy="800" r="6" fill="#7A3506"/><circle cx="132" cy="694" r="6" fill="#7A3506"/><text x="445.0" y="150.0" fill="#7A3506" font-family="IBM Plex Mono, monospace" font-size="13" text-anchor="middle" opacity="0.85">N 86°E  642.0'</text><text x="791.0" y="379.0" fill="#7A3506" font-family="IBM Plex Mono, monospace" font-size="13" text-anchor="middle" opacity="0.85">S 8°E  500.4'</text><text x="621.0" y="714.0" fill="#7A3506" font-family="IBM Plex Mono, monospace" font-size="13" text-anchor="middle" opacity="0.85">S 44°W  470.1'</text><text x="281.0" y="747.0" fill="#7A3506" font-family="IBM Plex Mono, monospace" font-size="13" text-anchor="middle" opacity="0.85">N 79°W  566.2'</text><text x="126.0" y="432.0" fill="#7A3506" font-family="IBM Plex Mono, monospace" font-size="13" text-anchor="middle" opacity="0.85">N 4°W  524.9'</text><path d="M180,225 L710,190 L745,600 L440,728 L195,640 Z" stroke-width="1.4" stroke-dasharray="10 6" stroke="#C0470F" stroke-opacity="0.7"/><text x="455" y="214" fill="#C0470F" font-family="IBM Plex Mono, monospace" font-size="12" text-anchor="middle" opacity="0.8">CLEARING LIMITS</text><rect x="330" y="430" width="200" height="140" stroke-width="1.8"/><line x1="330" y1="430" x2="530" y2="570" stroke-width="0.8" stroke-opacity="0.5"/><line x1="530" y1="430" x2="330" y2="570" stroke-width="0.8" stroke-opacity="0.5"/><text x="430" y="505" fill="#7A3506" font-family="IBM Plex Mono, monospace" font-size="13" text-anchor="middle">PROPOSED PAD</text><text x="430" y="524" fill="#7A3506" font-family="IBM Plex Mono, monospace" font-size="11" text-anchor="middle" opacity="0.7">200&#39; x 140&#39;</text></g><g stroke="#7A3506" stroke-opacity="0.6" fill="none"><circle cx="259" cy="490" r="17" stroke-width="1.2"/><line x1="259" y1="490" x2="276" y2="490" stroke-width="0.7"/><line x1="259" y1="490" x2="271" y2="503" stroke-width="0.7"/><line x1="259" y1="490" x2="259" y2="508" stroke-width="0.7"/><line x1="259" y1="490" x2="246" y2="503" stroke-width="0.7"/><line x1="259" y1="490" x2="241" y2="490" stroke-width="0.7"/><line x1="259" y1="490" x2="246" y2="478" stroke-width="0.7"/><line x1="259" y1="490" x2="259" y2="473" stroke-width="0.7"/><line x1="259" y1="490" x2="271" y2="478" stroke-width="0.7"/><circle cx="261" cy="473" r="15" stroke-width="1.2"/><line x1="261" y1="473" x2="276" y2="473" stroke-width="0.7"/><line x1="261" y1="473" x2="271" y2="483" stroke-width="0.7"/><line x1="261" y1="473" x2="261" y2="488" stroke-width="0.7"/><line x1="261" y1="473" x2="250" y2="483" stroke-width="0.7"/><line x1="261" y1="473" x2="245" y2="473" stroke-width="0.7"/><line x1="261" y1="473" x2="250" y2="462" stroke-width="0.7"/><line x1="261" y1="473" x2="261" y2="458" stroke-width="0.7"/><line x1="261" y1="473" x2="271" y2="462" stroke-width="0.7"/><circle cx="224" cy="474" r="15" stroke-width="1.2"/><line x1="224" y1="474" x2="239" y2="474" stroke-width="0.7"/><line x1="224" y1="474" x2="235" y2="485" stroke-width="0.7"/><line x1="224" y1="474" x2="224" y2="489" stroke-width="0.7"/><line x1="224" y1="474" x2="213" y2="485" stroke-width="0.7"/><line x1="224" y1="474" x2="209" y2="474" stroke-width="0.7"/><line x1="224" y1="474" x2="213" y2="463" stroke-width="0.7"/><line x1="224" y1="474" x2="224" y2="459" stroke-width="0.7"/><line x1="224" y1="474" x2="235" y2="463" stroke-width="0.7"/><circle cx="303" cy="332" r="13" stroke-width="1.2"/><line x1="303" y1="332" x2="316" y2="332" stroke-width="0.7"/><line x1="303" y1="332" x2="312" y2="341" stroke-width="0.7"/><line x1="303" y1="332" x2="303" y2="345" stroke-width="0.7"/><line x1="303" y1="332" x2="294" y2="341" stroke-width="0.7"/><line x1="303" y1="332" x2="290" y2="332" stroke-width="0.7"/><line x1="303" y1="332" x2="294" y2="323" stroke-width="0.7"/><line x1="303" y1="332" x2="303" y2="319" stroke-width="0.7"/><line x1="303" y1="332" x2="312" y2="323" stroke-width="0.7"/><circle cx="212" cy="575" r="16" stroke-width="1.2"/><line x1="212" y1="575" x2="228" y2="575" stroke-width="0.7"/><line x1="212" y1="575" x2="223" y2="586" stroke-width="0.7"/><line x1="212" y1="575" x2="212" y2="591" stroke-width="0.7"/><line x1="212" y1="575" x2="201" y2="586" stroke-width="0.7"/><line x1="212" y1="575" x2="196" y2="575" stroke-width="0.7"/><line x1="212" y1="575" x2="201" y2="564" stroke-width="0.7"/><line x1="212" y1="575" x2="212" y2="559" stroke-width="0.7"/><line x1="212" y1="575" x2="223" y2="564" stroke-width="0.7"/><circle cx="205" cy="634" r="18" stroke-width="1.2"/><line x1="205" y1="634" x2="223" y2="634" stroke-width="0.7"/><line x1="205" y1="634" x2="218" y2="646" stroke-width="0.7"/><line x1="205" y1="634" x2="205" y2="652" stroke-width="0.7"/><line x1="205" y1="634" x2="193" y2="646" stroke-width="0.7"/><line x1="205" y1="634" x2="188" y2="634" stroke-width="0.7"/><line x1="205" y1="634" x2="193" y2="621" stroke-width="0.7"/><line x1="205" y1="634" x2="205" y2="616" stroke-width="0.7"/><line x1="205" y1="634" x2="218" y2="621" stroke-width="0.7"/><circle cx="285" cy="509" r="12" stroke-width="1.2"/><line x1="285" y1="509" x2="297" y2="509" stroke-width="0.7"/><line x1="285" y1="509" x2="294" y2="518" stroke-width="0.7"/><line x1="285" y1="509" x2="285" y2="521" stroke-width="0.7"/><line x1="285" y1="509" x2="276" y2="518" stroke-width="0.7"/><line x1="285" y1="509" x2="273" y2="509" stroke-width="0.7"/><line x1="285" y1="509" x2="276" y2="501" stroke-width="0.7"/><line x1="285" y1="509" x2="285" y2="497" stroke-width="0.7"/><line x1="285" y1="509" x2="294" y2="501" stroke-width="0.7"/><circle cx="202" cy="480" r="11" stroke-width="1.2"/><line x1="202" y1="480" x2="213" y2="480" stroke-width="0.7"/><line x1="202" y1="480" x2="210" y2="488" stroke-width="0.7"/><line x1="202" y1="480" x2="202" y2="491" stroke-width="0.7"/><line x1="202" y1="480" x2="194" y2="488" stroke-width="0.7"/><line x1="202" y1="480" x2="191" y2="480" stroke-width="0.7"/><line x1="202" y1="480" x2="194" y2="472" stroke-width="0.7"/><line x1="202" y1="480" x2="202" y2="468" stroke-width="0.7"/><line x1="202" y1="480" x2="210" y2="472" stroke-width="0.7"/><circle cx="225" cy="382" r="11" stroke-width="1.2"/><line x1="225" y1="382" x2="236" y2="382" stroke-width="0.7"/><line x1="225" y1="382" x2="233" y2="390" stroke-width="0.7"/><line x1="225" y1="382" x2="225" y2="393" stroke-width="0.7"/><line x1="225" y1="382" x2="217" y2="390" stroke-width="0.7"/><line x1="225" y1="382" x2="214" y2="382" stroke-width="0.7"/><line x1="225" y1="382" x2="217" y2="374" stroke-width="0.7"/><line x1="225" y1="382" x2="225" y2="371" stroke-width="0.7"/><line x1="225" y1="382" x2="233" y2="374" stroke-width="0.7"/><circle cx="260" cy="450" r="17" stroke-width="1.2"/><line x1="260" y1="450" x2="277" y2="450" stroke-width="0.7"/><line x1="260" y1="450" x2="272" y2="462" stroke-width="0.7"/><line x1="260" y1="450" x2="260" y2="467" stroke-width="0.7"/><line x1="260" y1="450" x2="248" y2="462" stroke-width="0.7"/><line x1="260" y1="450" x2="243" y2="450" stroke-width="0.7"/><line x1="260" y1="450" x2="248" y2="438" stroke-width="0.7"/><line x1="260" y1="450" x2="260" y2="433" stroke-width="0.7"/><line x1="260" y1="450" x2="272" y2="438" stroke-width="0.7"/><circle cx="267" cy="518" r="14" stroke-width="1.2"/><line x1="267" y1="518" x2="282" y2="518" stroke-width="0.7"/><line x1="267" y1="518" x2="278" y2="528" stroke-width="0.7"/><line x1="267" y1="518" x2="267" y2="532" stroke-width="0.7"/><line x1="267" y1="518" x2="257" y2="528" stroke-width="0.7"/><line x1="267" y1="518" x2="253" y2="518" stroke-width="0.7"/><line x1="267" y1="518" x2="257" y2="507" stroke-width="0.7"/><line x1="267" y1="518" x2="267" y2="503" stroke-width="0.7"/><line x1="267" y1="518" x2="278" y2="507" stroke-width="0.7"/></g><g stroke="#C0470F" stroke-opacity="0.28" stroke-width="1"><line x1="360" y1="250" x2="620" y2="510"/><line x1="382" y1="250" x2="642" y2="510"/><line x1="404" y1="250" x2="664" y2="510"/><line x1="426" y1="250" x2="686" y2="510"/><line x1="448" y1="250" x2="708" y2="510"/><line x1="470" y1="250" x2="730" y2="510"/><line x1="492" y1="250" x2="752" y2="510"/><line x1="514" y1="250" x2="774" y2="510"/><line x1="536" y1="250" x2="796" y2="510"/><line x1="558" y1="250" x2="818" y2="510"/><line x1="580" y1="250" x2="840" y2="510"/><line x1="602" y1="250" x2="862" y2="510"/><line x1="624" y1="250" x2="884" y2="510"/><line x1="646" y1="250" x2="906" y2="510"/><line x1="668" y1="250" x2="928" y2="510"/><line x1="690" y1="250" x2="950" y2="510"/><line x1="712" y1="250" x2="972" y2="510"/><line x1="734" y1="250" x2="994" y2="510"/><line x1="756" y1="250" x2="1016" y2="510"/><line x1="778" y1="250" x2="1038" y2="510"/><line x1="800" y1="250" x2="1060" y2="510"/><line x1="822" y1="250" x2="1082" y2="510"/><line x1="844" y1="250" x2="1104" y2="510"/><line x1="866" y1="250" x2="1126" y2="510"/><line x1="888" y1="250" x2="1148" y2="510"/><line x1="910" y1="250" x2="1170" y2="510"/><line x1="932" y1="250" x2="1192" y2="510"/><line x1="954" y1="250" x2="1214" y2="510"/><line x1="976" y1="250" x2="1236" y2="510"/><line x1="998" y1="250" x2="1258" y2="510"/><line x1="1020" y1="250" x2="1280" y2="510"/><line x1="1042" y1="250" x2="1302" y2="510"/></g><g stroke="#7A3506" stroke-opacity="0.95"><circle cx="760" cy="230" r="34" stroke-width="1.2" fill="none"/><path d="M760,200 L772,240 L760,230 L748,240 Z" fill="#C0470F" stroke="#C0470F"/><text x="760" y="192" fill="#7A3506" font-family="IBM Plex Mono, monospace" font-size="15" text-anchor="middle">N</text></g><g stroke="#7A3506" stroke-opacity="0.9"><rect x="140" y="830" width="44" height="12" fill="none" fill-opacity="0.8" stroke-width="1"/><rect x="184" y="830" width="44" height="12" fill="#7A3506" fill-opacity="0.8" stroke-width="1"/><rect x="228" y="830" width="44" height="12" fill="none" fill-opacity="0.8" stroke-width="1"/><rect x="272" y="830" width="44" height="12" fill="#7A3506" fill-opacity="0.8" stroke-width="1"/><text x="140" y="824" fill="#7A3506" font-family="IBM Plex Mono, monospace" font-size="11">0</text><text x="316" y="824" fill="#7A3506" font-family="IBM Plex Mono, monospace" font-size="11" text-anchor="end">100 FT</text></g></svg>